<svg width="26" height="24" viewBox="0 0 26 24" fill="none" xmlns="http://www.w3.org/2000/svg">
<path opacity="0.4" d="M8.32931 22H17.9291C20.7208 22 22.9833 19.82 22.9833 17.13V8.37C22.9833 5.68 20.7208 3.5 17.9291 3.5H8.32931C5.53758 3.5 3.27515 5.68 3.27515 8.37V17.12C3.27515 19.82 5.53758 22 8.32931 22Z" fill="#C0DE48"/>
<path d="M9.28422 6.29C8.84834 6.29 8.50586 5.95 8.50586 5.54V2.75C8.50586 2.34 8.84834 2 9.28422 2C9.7201 2 10.0626 2.34 10.0626 2.75V5.53C10.0626 5.95 9.7201 6.29 9.28422 6.29Z" fill="#C0DE48"/>
<path d="M16.9847 6.29C16.5488 6.29 16.2063 5.95 16.2063 5.54V2.75C16.2063 2.33 16.5592 2 16.9847 2C17.4205 2 17.763 2.34 17.763 2.75V5.53C17.763 5.95 17.4205 6.29 16.9847 6.29Z" fill="#C0DE48"/>
<path d="M13.1344 14.75H11.3805V13C11.3805 12.59 11.0277 12.25 10.6022 12.25C10.1767 12.25 9.8238 12.59 9.8238 13V14.75H7.94535C7.51985 14.75 7.16699 15.09 7.16699 15.5C7.16699 15.91 7.51985 16.25 7.94535 16.25H9.8238V18C9.8238 18.41 10.1767 18.75 10.6022 18.75C11.0277 18.75 11.3805 18.41 11.3805 18V16.25H13.1344C13.5599 16.25 13.9128 15.91 13.9128 15.5C13.9128 15.09 13.5599 14.75 13.1344 14.75Z" fill="#C0DE48"/>
</svg>
