<svg width="11" height="14" viewBox="0 0 11 14" fill="none" xmlns="http://www.w3.org/2000/svg">
<path d="M6.06321 13.7947C6.02285 13.7297 5.99084 13.6525 5.969 13.5675C5.94715 13.4826 5.93591 13.3915 5.93591 13.2995C5.93591 13.2075 5.94715 13.1164 5.969 13.0315C5.99084 12.9465 6.02285 12.8693 6.06321 12.8043L9.22892 7.69987L0.727878 7.69987C0.612766 7.69987 0.502368 7.62613 0.420972 7.49486C0.339575 7.36359 0.293847 7.18556 0.293847 6.99992C0.293847 6.81428 0.339575 6.63624 0.420972 6.50498C0.502368 6.37371 0.612766 6.29997 0.727878 6.29997L9.22892 6.29997L6.06321 1.19556C5.98176 1.06422 5.93601 0.886084 5.93601 0.700342C5.93601 0.5146 5.98176 0.336465 6.06321 0.205125C6.14465 0.0737855 6.25511 -2.97771e-07 6.37028 -2.91423e-07C6.48546 -2.85074e-07 6.59592 0.0737855 6.67736 0.205125L10.5836 6.5047C10.624 6.56971 10.656 6.64691 10.6779 6.73188C10.6997 6.81685 10.7109 6.90794 10.7109 6.99992C10.7109 7.0919 10.6997 7.18299 10.6779 7.26796C10.656 7.35293 10.624 7.43013 10.5836 7.49514L6.67736 13.7947C6.63705 13.8598 6.58918 13.9114 6.53649 13.9466C6.4838 13.9819 6.42732 14 6.37028 14C6.31324 14 6.25677 13.9819 6.20408 13.9466C6.15138 13.9114 6.10352 13.8598 6.06321 13.7947Z" fill="#C0DE48"/>
</svg>
